/* XPM */
static char * C:\Users\El Nitsuj\Desktop\test\collectible_xpm[] = {
"70 70 24 1",
" 	c #FFFFFF",
".	c #455C5B",
"+	c #3A3A50",
"@	c #B8D040",
"#	c #64B63B",
"$	c #568D61",
"%	c #32675A",
"&	c #4E6E61",
"*	c #9BC246",
"=	c #F2B22B",
"-	c #F8D239",
";	c #FFE57B",
">	c #C4D040",
",	c #93B63B",
"'	c #66451E",
")	c #ED931E",
"!	c #608D56",
"~	c #D0BE9C",
"{	c #F27D2B",
"]	c #9C786B",
"^	c #E0D0B2",
"/	c #B99E86",
"(	c #916662",
"_	c #A79796",
"                                                                      ",
"                                                                      ",
"                                                                      ",
"                                                                      ",
"                                                                      ",
"                                                                      ",
"                                                                      ",
"                                                                      ",
"                                     ...+++                           ",
"                                     ...+++                           ",
"                                     ...+++                           ",
"                                  ...@@@###++++++                     ",
"                                  ...@@@###++++++                     ",
"                                  ...@@@###++++++                     ",
"                               +++$$$###+++...@@@%%%+++               ",
"                               +++$$$###+++...@@@%%%+++               ",
"                               +++$$$###+++...@@@%%%+++               ",
"                         ++++++$$$###$$$&&&***@@@$$$...               ",
"                         ++++++$$$###$$$&&&***@@@$$$...               ",
"                         ++++++$$$###$$$&&&***@@@$$$...               ",
"                      +++$$$***+++$$$+++***###&&&###&&&+++            ",
"                      +++$$$***+++$$$+++***###&&&###&&&+++            ",
"                      +++$$$***+++$$$+++***###&&&###&&&+++            ",
"                   +++===###&&&++++++...+++$$$...+++...+++            ",
"                   +++===###&&&++++++...+++$$$...+++...+++            ",
"                   +++===###&&&++++++...+++$$$...+++...+++            ",
"                +++---;;;###;;;---...>>>,,,+++@@@###+++&&&            ",
"                +++---;;;###;;;---...>>>,,,+++@@@###+++&&&            ",
"                +++---;;;###;;;---...>>>,,,+++@@@###+++&&&            ",
"             +++''')))===---===+++!!!,,,!!!...###$$$...               ",
"             +++''')))===---===+++!!!,,,!!!...###$$$...               ",
"             +++''')))===---===+++!!!,,,!!!...###$$$...               ",
"             +++'''))))))===+++!!!,,,!!!+++###$$$++++++               ",
"             +++'''))))))===+++!!!,,,!!!+++###$$$++++++               ",
"             +++'''))))))===+++!!!,,,!!!+++###$$$++++++               ",
"             +++~~~'''{{{...,,,,,,!!!+++###$$$+++]]]+++               ",
"             +++~~~'''{{{...,,,,,,!!!+++###$$$+++]]]+++               ",
"             +++~~~'''{{{...,,,,,,!!!+++###$$$+++]]]+++               ",
"             +++~~~^^^+++...!!!!!!...$$$$$$...///]]]+++               ",
"             +++~~~^^^+++...!!!!!!...$$$$$$...///]]]+++               ",
"             +++~~~^^^+++...!!!!!!...$$$$$$...///]]]+++               ",
"                '''~~~^^^+++++++++''''''++++++]]]'''                  ",
"                '''~~~^^^+++++++++''''''++++++]]]'''                  ",
"                '''~~~^^^+++++++++''''''++++++]]]'''                  ",
"                +++'''~~~^^^^^^^^^~~~~~~//////'''+++                  ",
"                +++'''~~~^^^^^^^^^~~~~~~//////'''+++                  ",
"                +++'''~~~^^^^^^^^^~~~~~~//////'''+++                  ",
"                +++]]]((('''+++''''''+++++++++(((+++                  ",
"                +++]]]((('''+++''''''+++++++++(((+++                  ",
"                +++]]]((('''+++''''''+++++++++(((+++                  ",
"                ___+++]]]]]]////////////]]]]]]+++___                  ",
"                ___+++]]]]]]////////////]]]]]]+++___                  ",
"                ___+++]]]]]]////////////]]]]]]+++___                  ",
"                   ___++++++''''''++++++++++++___                     ",
"                   ___++++++''''''++++++++++++___                     ",
"                   ___++++++''''''++++++++++++___                     ",
"                         __________________                           ",
"                         __________________                           ",
"                         __________________                           ",
"                                                                      ",
"                                                                      ",
"                                                                      ",
"                                                                      ",
"                                                                      ",
"                                                                      ",
"                                                                      ",
"                                                                      ",
"                                                                      ",
"                                                                      ",
"                                                                      "};
