/* XPM */
static char * C:\Users\El Nitsuj\Desktop\test\exit_xpm[] = {
"70 70 8 1",
" 	c #FFFFFF",
".	c #3A3A50",
"+	c #46465E",
"@	c #B5754D",
"#	c #CA8854",
"$	c #B35E3F",
"%	c #E0B870",
"&	c #A85F46",
"           ......++++++++++++++++++++++++++++++++++++++++++.          ",
"           ......++++++++++++++++++++++++++++++++++++++++++.          ",
"           @@@@@@##########################################@          ",
"           @@@@@@##########################################@          ",
"           @@@@@@##########################################@          ",
"           @@@@@@##########################################@          ",
"           @@@@@@##########################################@          ",
"           @@@@@@##########################################@          ",
"           @@@@@@$$$$$$$$$$$$$$$$$$$$$$$$$$$$$$$$$#########@          ",
"           @@@@@@$$$$$$$$$$$$$$$$$$$$$$$$$$$$$$$$$#########@          ",
"           @@@@@@$$$$$$$$$$$$$$$$$$$$$$$$$$$$$$$$$#########@          ",
"           @@@@@@$$$##############################%%%######@          ",
"           @@@@@@$$$##############################%%%######@          ",
"           @@@@@@$$$##############################%%%######@          ",
"           @@@@@@$$$##############################%%%######@          ",
"           @@@@@@$$$##############################%%%######@          ",
"           @@@@@@$$$##############################%%%######@          ",
"           @@@@@@$$$##############################%%%######@          ",
"           @@@@@@$$$##############################%%%######@          ",
"           @@@@@@$$$##############################%%%######@          ",
"           @@@@@@$$$##############################%%%######@          ",
"           @@@@@@$$$##############################%%%######@          ",
"           @@@@@@$$$##############################%%%######@          ",
"           @@@@@@$$$##############################%%%######@          ",
"           @@@@@@$$$##############################%%%######@          ",
"           @@@@@@$$$##############################%%%######@          ",
"           @@@@@@$$$##############################%%%######@          ",
"           @@@@@@$$$##############################%%%######@          ",
"           @@@@@@$$$##############################%%%######@          ",
"           @@@@@@$$$##############################%%%######@          ",
"           @@@@@@$$$##############################%%%######@          ",
"           @@@@@@$$$##############################%%%######@          ",
"           @@@@@@$$$##############################%%%######@          ",
"           @@@@@@$$$##############################%%%######@          ",
"           @@@@@@$$$##############################%%%######@          ",
"           @@@@@@###%%%%%%%%%%%%%%%%%%%%%%%%%%%%%%%%%######@          ",
"           @@@@@@###%%%%%%%%%%%%%%%%%%%%%%%%%%%%%%%%%######@          ",
"           @@@@@@###%%%%%%%%%%%%%%%%%%%%%%%%%%%%%%%%%######@          ",
"           @@@@@@##########################################@          ",
"           @@@@@@##########################################@          ",
"           @@@@@@##########################################@          ",
"           @@@@@@##########################################@          ",
"           @@@@@@##########################################@          ",
"           @@@@@@##########################################@          ",
"           @@@@@@#################################%%%$$$###@          ",
"           @@@@@@#################################%%%$$$###@          ",
"           @@@@@@#################################%%%$$$###@          ",
"           @@@@@@#################################@@@$$$###@          ",
"           @@@@@@#################################@@@$$$###@          ",
"           @@@@@@#################################@@@$$$###@          ",
"           @@@@@@##########################################@          ",
"           @@@@@@##########################################@          ",
"           @@@@@@##########################################@          ",
"           @@@@@@##########################################@          ",
"           @@@@@@##########################################@          ",
"           @@@@@@##########################################@          ",
"           @@@@@@##########################################@          ",
"           @@@@@@##########################################@          ",
"           @@@@@@##########################################@          ",
"           @@@@@@##########################################@          ",
"           @@@@@@##########################################@          ",
"           @@@@@@##########################################@          ",
"           @@@@@@##########################################@          ",
"           @@@@@@##########################################@          ",
"           @@@@@@##########################################@          ",
"           @@@@@@##########################################@          ",
"           @@@@@@##########################################@          ",
"           @@@@@@##########################################@          ",
"           &&&&&&&&&&&&&&&&&&&&&&&&&&&&&&&&&&&&&&&&&&&&&&&&&          ",
"           &&&&&&&&&&&&&&&&&&&&&&&&&&&&&&&&&&&&&&&&&&&&&&&&&          "};
