/* XPM */
static char * C:\Users\El Nitsuj\Desktop\test\player_xpm[] = {
"70 70 15 1",
" 	c #FFFFFF",
".	c #565972",
"+	c #46465E",
"@	c #3A3A50",
"#	c #959D58",
"$	c #687253",
"%	c #5F694A",
"&	c #5D6043",
"*	c #BBA386",
"=	c #FFCBB0",
"-	c #F6AE9F",
";	c #F69784",
">	c #805E8E",
",	c #9F74A8",
"'	c #FFB893",
"                                                                      ",
"                  ......+++++++++++++++@@@                            ",
"                  ......+++++++++++++++@@@                            ",
"                  ......+++++++++++++++@@@                            ",
"               ...##################$$$$$$+++@@@                      ",
"               ...##################$$$$$$+++@@@                      ",
"               ...##################$$$$$$+++@@@                      ",
"            ...$$$##################$$$$$$%%%###+++                   ",
"            ...$$$##################$$$$$$%%%###+++                   ",
"            ...$$$##################$$$$$$%%%###+++                   ",
"            +++$$$$$$############$$$$$$$$$%%%$$$###+++                ",
"            +++$$$$$$############$$$$$$$$$%%%$$$###+++                ",
"            +++$$$$$$############$$$$$$$$$%%%$$$###+++                ",
"            +++$$$$$$$$$$$$$$$$$$$$$$$$$$$$$$$$$%%%@@@                ",
"            +++$$$$$$$$$$$$$$$$$$$$$$$$$$$$$$$$$%%%@@@                ",
"            +++$$$$$$$$$$$$$$$$$$$$$$$$$$$$$$$$$%%%@@@                ",
"            ...+++$$$$$$$$$$$$$$$$$$$$$$$$%%%$$$%%%&&&+++             ",
"            ...+++$$$$$$$$$$$$$$$$$$$$$$$$%%%$$$%%%&&&+++             ",
"            ...+++$$$$$$$$$$$$$$$$$$$$$$$$%%%$$$%%%&&&+++             ",
"               @@@@@@&&&%%%%%%%%%$$$$$$$$$$$$$$$%%%&&&@@@             ",
"               @@@@@@&&&%%%%%%%%%$$$$$$$$$$$$$$$%%%&&&@@@             ",
"               @@@@@@&&&%%%%%%%%%$$$$$$$$$$$$$$$%%%&&&@@@             ",
"            @@@&&&&&&%%%$$$***$$$$$$*********$$$%%%&&&&&&@@@          ",
"            @@@&&&&&&%%%$$$***$$$$$$*********$$$%%%&&&&&&@@@          ",
"            @@@&&&&&&%%%$$$***$$$$$$*********$$$%%%&&&&&&@@@          ",
"            @@@&&&&&&%%%***===$$$***=========***%%%&&&&&&@@@          ",
"            @@@&&&&&&%%%***===$$$***=========***%%%&&&&&&@@@          ",
"            @@@&&&&&&%%%***===$$$***=========***%%%&&&&&&@@@          ",
"            @@@&&&&&&==============================&&&&&&@@@          ",
"            @@@&&&&&&==============================&&&&&&@@@          ",
"            @@@&&&&&&==============================&&&&&&@@@          ",
"            @@@+++---==============================---+++@@@          ",
"            @@@+++---==============================---+++@@@          ",
"            @@@+++---==============================---+++@@@          ",
"               +++=========@@@============@@@=========+++             ",
"               +++=========@@@============@@@=========+++             ",
"               +++=========@@@============@@@=========+++             ",
"                  +++---===%%%============%%%===---+++                ",
"                  +++---===%%%============%%%===---+++                ",
"                  +++---===%%%============%%%===---+++                ",
"                  +++---;;;;;;------------;;;;;;---+++                ",
"                  +++---;;;;;;------------;;;;;;---+++                ",
"                  +++---;;;;;;------------;;;;;;---+++                ",
"               @@@>>>++++++++++++++++++++++++++++++>>>+++             ",
"               @@@>>>++++++++++++++++++++++++++++++>>>+++             ",
"               @@@>>>++++++++++++++++++++++++++++++>>>+++             ",
"               @@@,,,>>>>>>>>>>>>>>>>>>>>>>>>>>>>>>,,,+++             ",
"               @@@,,,>>>>>>>>>>>>>>>>>>>>>>>>>>>>>>,,,+++             ",
"               @@@,,,>>>>>>>>>>>>>>>>>>>>>>>>>>>>>>,,,+++             ",
"            +++'''@@@,,,,,,,,,,,,,,,,,,,,,,,,,,,,,,+++'''+++          ",
"            +++'''@@@,,,,,,,,,,,,,,,,,,,,,,,,,,,,,,+++'''+++          ",
"            +++'''@@@,,,,,,,,,,,,,,,,,,,,,,,,,,,,,,+++'''+++          ",
"            +++''';;;@@@+++>>>>>>>>>>>>>>>>>>+++@@@;;;'''+++          ",
"            +++''';;;@@@+++>>>>>>>>>>>>>>>>>>+++@@@;;;'''+++          ",
"            +++''';;;@@@+++>>>>>>>>>>>>>>>>>>+++@@@;;;'''+++          ",
"               +++@@@@@@&&&++++++++++++++++++&&&@@@@@@+++             ",
"               +++@@@@@@&&&++++++++++++++++++&&&@@@@@@+++             ",
"               +++@@@@@@&&&++++++++++++++++++&&&@@@@@@+++             ",
"                     @@@$$$$$$$$$$$$$$$$$$$$$$$$@@@                   ",
"                     @@@$$$$$$$$$$$$$$$$$$$$$$$$@@@                   ",
"                     @@@$$$$$$$$$$$$$$$$$$$$$$$$@@@                   ",
"                     @@@$$$$$$...++++++...$$$$$$@@@                   ",
"                     @@@$$$$$$...++++++...$$$$$$@@@                   ",
"                     @@@$$$$$$...++++++...$$$$$$@@@                   ",
"                     @@@>>>>>>@@@      @@@>>>>>>@@@                   ",
"                     @@@>>>>>>@@@      @@@>>>>>>@@@                   ",
"                     @@@>>>>>>@@@      @@@>>>>>>@@@                   ",
"                        @@@@@@            @@@@@@                      ",
"                        @@@@@@            @@@@@@                      ",
"                        @@@@@@            @@@@@@                      "};
